<svg width="120px" height="62px" viewBox="0 0 120 62" version="1.1" xmlns="http://www.w3.org/2000/svg" xmlns:xlink="http://www.w3.org/1999/xlink">
    <defs>
        <polygon id="path-1" points="0 61.7136021 119.905587 61.7136021 119.905587 0.0415896014 0 0.0415896014"></polygon>
    </defs>
    <g id="Assets" stroke="none" stroke-width="1" fill="none" fill-rule="evenodd">
        <g id="Large-Desktop" transform="translate(-725.156313, -498.042348)">
            <g id="logo_full_black" transform="translate(725.157167, 498.328850)">
                <path d="M0,58.807947 L3.05603946,58.807947 L5.15086757,54.4491572 L13.200499,54.4491572 L15.172981,58.807947 L18.2781457,58.807947 L9.30372652,39.7350993 L0,58.807947 Z M9.25460126,45.8021768 L12.043347,51.9041973 L6.33192848,51.9041973 L9.25460126,45.8021768 Z"  fill="#141414"></path>
                <path d="M26.4999793,57.5281358 L27.804762,57.5281358 C29.1061127,57.5281358 30.1876161,57.390526 31.0490816,57.1156896 C31.9113098,56.8239875 32.6904041,56.3617104 33.3863645,55.7284752 C34.8114626,54.4209901 35.5243929,52.7171581 35.5243929,50.6179373 C35.5243929,48.5020424 34.8198522,46.7865192 33.4113428,45.4704096 C32.1435508,44.2961262 30.2745634,43.7088887 27.804762,43.7088887 L26.4999793,43.7088887 L26.4999793,57.5281358 Z M23.60364,60.2642333 L23.60364,40.9722163 L27.631058,40.9722163 C29.5618237,40.9722163 31.0864537,41.1636818 32.2053292,41.5466127 C33.4071479,41.9216858 34.4968503,42.5591375 35.474627,43.4587761 C37.4555401,45.2749193 38.4457106,47.6614341 38.4457106,50.6179373 C38.4457106,53.58364 37.4137824,55.9828042 35.3504982,57.8154299 C34.3141845,58.7317427 33.2288677,59.3688111 32.0937849,59.7270183 C31.0324929,60.0852255 29.5284558,60.2642333 27.5814827,60.2642333 L23.60364,60.2642333 Z"  fill="#141414"></path>
                <polygon  fill="#141414" points="44.8953758 40.9722546 50.2031702 54.3416824 55.5858996 40.9722546 58.7556655 40.9722546 50.1412012 61.713583 41.7256099 40.9722546"></polygon>
                <polygon  fill="#141414" points="74.2793006 43.7087929 66.5848387 43.7087929 66.5848387 49.2499844 74.0554492 49.2499844 74.0554492 51.9864652 66.5848387 51.9864652 66.5848387 57.52804 74.2793006 57.52804 74.2793006 60.2643291 63.6884994 60.2643291 63.6884994 40.9723121 74.2793006 40.9723121"></polygon>
                <path d="M83.5256779,49.8309739 L84.4451084,49.8309739 C87.1883364,49.8309739 88.5598551,48.7774345 88.5598551,46.6695892 C88.5598551,44.6957122 87.2255178,43.7088695 84.5570341,43.7088695 L83.5256779,43.7088695 L83.5256779,49.8309739 Z M87.1303715,52.0426974 L93.0723479,60.2644058 L89.5294328,60.2644058 L84.0473622,52.3677479 L83.5256779,52.3677479 L83.5256779,60.2644058 L80.6293386,60.2644058 L80.6293386,40.9721971 L84.0223839,40.9721971 C86.5585399,40.9721971 88.3901551,41.450765 89.5172296,42.4090508 C90.760234,43.4754311 91.3816408,44.8833446 91.3816408,46.6320244 C91.3816408,47.9987315 90.991903,49.1732065 90.2133807,50.1562161 C89.4342864,51.1390339 88.4063624,51.7676694 87.1303715,52.0426974 Z"  fill="#141414"></path>
                
                <g id="Clip-11"></g>
                <polygon  fill="#141414" mask="url(#mask-2)" points="98.5024216 60.2642908 101.398761 60.2642908 101.398761 40.9722738 98.5024216 40.9722738"></polygon>
                <path d="M119.408347,43.833255 L117.058861,45.2327355 C116.619548,44.4668736 116.201209,43.9668401 115.803082,43.7334017 C115.388747,43.4671899 114.854097,43.3339882 114.199894,43.3339882 C113.395631,43.3339882 112.728653,43.5628268 112.198388,44.021654 C111.667552,44.471665 111.402705,45.0382035 111.402705,45.7220362 C111.402705,46.6642228 112.098666,47.4226101 113.490968,47.9977732 L115.405526,48.7854841 C116.963715,49.4191027 118.102993,50.1922476 118.824313,51.1049189 C119.54487,52.0179736 119.905626,53.1370597 119.905626,54.4619856 C119.905626,56.2378807 119.317015,57.7048245 118.140365,58.8635837 C116.955325,60.0309674 115.484084,60.6143717 113.727595,60.6143717 C112.061484,60.6143717 110.685771,60.1162548 109.600454,59.1205959 C108.531154,58.1251287 107.863985,56.7283314 107.598948,54.9288624 L110.53266,54.2793363 C110.665178,55.4124134 110.896847,56.1949495 111.228811,56.6282863 C111.825239,57.4610367 112.695666,57.8775076 113.838948,57.8775076 C114.742171,57.8775076 115.492474,57.5741144 116.089284,56.9665612 C116.685903,56.3588164 116.984308,55.5889296 116.984308,54.6565176 C116.984308,54.2824028 116.932254,53.9389532 116.828718,53.6261687 C116.725182,53.3143426 116.56349,53.0270485 116.344215,52.7646699 C116.124177,52.5028662 115.840454,52.2571617 115.492474,52.0283231 C115.144303,51.7992928 114.729968,51.5808036 114.249279,51.3724723 L112.397071,50.5983691 C109.769773,49.4831161 108.4566,47.8519221 108.4566,45.7044038 C108.4566,44.2556674 109.007458,43.0447775 110.109935,42.0705842 C111.212222,41.0887247 112.583741,40.5971241 114.224491,40.5971241 C116.437455,40.5971241 118.165343,41.6759622 119.408347,43.833255"  fill="#141414" mask="url(#mask-2)"></path>
                <polygon  fill="#141414" mask="url(#mask-2)" points="57.2906784 0.0416662643 44.8392795 28.7455826 48.9244717 28.7455826 57.2914411 8.59321662 59.3682632 13.882379 61.0103484 9.65001414"></polygon>
                <polygon  fill="#141414" mask="url(#mask-2)" points="73.4991004 28.7455059 76.9985418 28.7455059 65.3535036 0.0517474304 61.3236069 10.4587306 61.3091156 10.4219325 59.6693185 14.6487393 59.6758014 14.6652218 54.2049807 28.7455059 68.4468092 28.7455059 63.2970836 15.5221209 63.2894567 15.5428199 63.2820204 15.5234625 61.7030483 19.9055115 64.1717056 26.253963 58.7700996 26.253963 61.370322 19.0756361 62.9573024 14.6692466 65.2539717 8.32424498"></polygon>
            </g>
        </g>
    </g>
</svg>